<svg width="20" height="20" viewBox="0 0 20 20" fill="none" xmlns="http://www.w3.org/2000/svg">
<path fill-rule="evenodd" clip-rule="evenodd" d="M9.11194 2.44495C10.0106 1.54634 11.2293 1.0415 12.5002 1.0415H15.0002C15.3453 1.0415 15.6252 1.32133 15.6252 1.6665V4.99984C15.6252 5.34501 15.3453 5.62484 15.0002 5.62484H12.5002C12.4449 5.62484 12.3919 5.64679 12.3528 5.68586C12.3138 5.72493 12.2918 5.77792 12.2918 5.83317V7.70817H15.0002C15.1926 7.70817 15.3743 7.79684 15.4928 7.94854C15.6112 8.10023 15.6532 8.29804 15.6065 8.48475L14.7732 11.8181C14.7036 12.0963 14.4536 12.2915 14.1668 12.2915H12.2918V18.3332C12.2918 18.6783 12.012 18.9582 11.6668 18.9582H8.3335C7.98832 18.9582 7.7085 18.6783 7.7085 18.3332V12.2915H5.8335C5.48832 12.2915 5.2085 12.0117 5.2085 11.6665V8.33317C5.2085 7.98799 5.48832 7.70817 5.8335 7.70817H7.7085V5.83317C7.7085 4.56234 8.21333 3.34356 9.11194 2.44495ZM12.5002 2.2915C11.5609 2.2915 10.66 2.66464 9.99583 3.32883C9.33163 3.99303 8.9585 4.89386 8.9585 5.83317V8.33317C8.9585 8.67835 8.67867 8.95817 8.3335 8.95817H6.4585V11.0415H8.3335C8.67867 11.0415 8.9585 11.3213 8.9585 11.6665V17.7082H11.0418V11.6665C11.0418 11.3213 11.3217 11.0415 11.6668 11.0415H13.6788L14.1997 8.95817H11.6668C11.3217 8.95817 11.0418 8.67835 11.0418 8.33317V5.83317C11.0418 5.4464 11.1955 5.07546 11.469 4.80197C11.7425 4.52848 12.1134 4.37484 12.5002 4.37484H14.3752V2.2915H12.5002Z" fill="black"/>
</svg>
