<svg width="20" height="20" viewBox="0 0 20 20" fill="none" xmlns="http://www.w3.org/2000/svg">
<path fill-rule="evenodd" clip-rule="evenodd" d="M5.83317 2.2915C3.87716 2.2915 2.2915 3.87716 2.2915 5.83317V14.1665C2.2915 16.1225 3.87716 17.7082 5.83317 17.7082H14.1665C16.1225 17.7082 17.7082 16.1225 17.7082 14.1665V5.83317C17.7082 3.87716 16.1225 2.2915 14.1665 2.2915H5.83317ZM1.0415 5.83317C1.0415 3.18681 3.18681 1.0415 5.83317 1.0415H14.1665C16.8129 1.0415 18.9582 3.18681 18.9582 5.83317V14.1665C18.9582 16.8129 16.8129 18.9582 14.1665 18.9582H5.83317C3.18681 18.9582 1.0415 16.8129 1.0415 14.1665V5.83317ZM13.9582 5.4165C13.9582 5.07133 14.238 4.7915 14.5832 4.7915H14.5915C14.9367 4.7915 15.2165 5.07133 15.2165 5.4165C15.2165 5.76168 14.9367 6.0415 14.5915 6.0415H14.5832C14.238 6.0415 13.9582 5.76168 13.9582 5.4165ZM10.4332 7.28474C9.86966 7.20118 9.29416 7.29743 8.78851 7.5598C8.28287 7.82217 7.87283 8.2373 7.61671 8.74614C7.3606 9.25498 7.27145 9.83163 7.36195 10.3941C7.45246 10.9565 7.718 11.476 8.12081 11.8789C8.52362 12.2817 9.04319 12.5472 9.60562 12.6377C10.168 12.7282 10.7447 12.6391 11.2535 12.383C11.7624 12.1268 12.1775 11.7168 12.4399 11.2112C12.7022 10.7055 12.7985 10.13 12.7149 9.56651C12.6297 8.99172 12.3619 8.45958 11.951 8.0487C11.5401 7.63782 11.008 7.36998 10.4332 7.28474ZM8.2128 6.45027C8.95182 6.06681 9.79294 5.92614 10.6165 6.04826C11.4566 6.17284 12.2343 6.56429 12.8349 7.16482C13.4354 7.76534 13.8268 8.54308 13.9514 9.38316C14.0735 10.2067 13.9329 11.0479 13.5494 11.7869C13.1659 12.5259 12.5592 13.1252 11.8155 13.4995C11.0718 13.8738 10.229 14.0041 9.40703 13.8718C8.58502 13.7396 7.82565 13.3515 7.23693 12.7627C6.6482 12.174 6.2601 11.4146 6.12783 10.5926C5.99556 9.77063 6.12585 8.92785 6.50017 8.18415C6.87449 7.44046 7.47378 6.83374 8.2128 6.45027Z" fill="black"/>
</svg>
