<svg width="20" height="20" viewBox="0 0 20 20" fill="none" xmlns="http://www.w3.org/2000/svg">
<path fill-rule="evenodd" clip-rule="evenodd" d="M3.33317 2.2915C2.75787 2.2915 2.2915 2.75787 2.2915 3.33317C2.2915 3.90847 2.75787 4.37484 3.33317 4.37484C3.90847 4.37484 4.37484 3.90847 4.37484 3.33317C4.37484 2.75787 3.90847 2.2915 3.33317 2.2915ZM1.0415 3.33317C1.0415 2.06752 2.06752 1.0415 3.33317 1.0415C4.59882 1.0415 5.62484 2.06752 5.62484 3.33317C5.62484 4.59882 4.59882 5.62484 3.33317 5.62484C2.06752 5.62484 1.0415 4.59882 1.0415 3.33317ZM13.3332 7.2915C12.1728 7.2915 11.06 7.75244 10.2396 8.57291C9.41911 9.39338 8.95817 10.5062 8.95817 11.6665V16.8748H11.0415V11.6665C11.0415 11.0587 11.2829 10.4758 11.7127 10.0461C12.1425 9.61628 12.7254 9.37484 13.3332 9.37484C13.941 9.37484 14.5238 9.61628 14.9536 10.0461C15.3834 10.4758 15.6248 11.0587 15.6248 11.6665V16.8748H17.7082V11.6665C17.7082 10.5062 17.2472 9.39338 16.4268 8.57291C15.6063 7.75244 14.4935 7.2915 13.3332 7.2915ZM9.35569 7.68903C10.4106 6.63414 11.8413 6.0415 13.3332 6.0415C14.825 6.0415 16.2558 6.63414 17.3106 7.68903C18.3655 8.74392 18.9582 10.1747 18.9582 11.6665V17.4998C18.9582 17.845 18.6783 18.1248 18.3332 18.1248H14.9998C14.6547 18.1248 14.3748 17.845 14.3748 17.4998V11.6665C14.3748 11.3902 14.2651 11.1253 14.0697 10.9299C13.8744 10.7346 13.6094 10.6248 13.3332 10.6248C13.0569 10.6248 12.7919 10.7346 12.5966 10.9299C12.4012 11.1253 12.2915 11.3902 12.2915 11.6665V17.4998C12.2915 17.845 12.0117 18.1248 11.6665 18.1248H8.33317C7.98799 18.1248 7.70817 17.845 7.70817 17.4998V11.6665C7.70817 10.1747 8.3008 8.74392 9.35569 7.68903ZM1.0415 7.49984C1.0415 7.15466 1.32133 6.87484 1.6665 6.87484H4.99984C5.34501 6.87484 5.62484 7.15466 5.62484 7.49984V17.4998C5.62484 17.845 5.34501 18.1248 4.99984 18.1248H1.6665C1.32133 18.1248 1.0415 17.845 1.0415 17.4998V7.49984ZM2.2915 8.12484V16.8748H4.37484V8.12484H2.2915Z" fill="black"/>
</svg>
