<svg width="20" height="20" viewBox="0 0 20 20" fill="none" xmlns="http://www.w3.org/2000/svg">
<path fill-rule="evenodd" clip-rule="evenodd" d="M6.5625 2.5C6.5625 2.15482 6.84232 1.875 7.1875 1.875H12.8125C13.1577 1.875 13.4375 2.15482 13.4375 2.5V6.25C13.4375 6.59518 13.1577 6.875 12.8125 6.875H7.1875C6.84232 6.875 6.5625 6.59518 6.5625 6.25V2.5ZM7.8125 3.125V5.625H12.1875V3.125H7.8125ZM1.875 9.0625C1.875 8.71732 2.15482 8.4375 2.5 8.4375H7.1875C7.53268 8.4375 7.8125 8.71732 7.8125 9.0625V12.1875H12.1875V9.0625C12.1875 8.71732 12.4673 8.4375 12.8125 8.4375H17.5C17.8452 8.4375 18.125 8.71732 18.125 9.0625V17.5C18.125 17.8452 17.8452 18.125 17.5 18.125H2.5C2.15482 18.125 1.875 17.8452 1.875 17.5V9.0625ZM3.125 9.6875V16.875H16.875V9.6875H13.4375V12.8125C13.4375 13.1577 13.1577 13.4375 12.8125 13.4375H7.1875C6.84232 13.4375 6.5625 13.1577 6.5625 12.8125V9.6875H3.125Z" fill="black"/>
</svg>
